<svg width="14" height="14" viewBox="0 0 14 14" fill="none" xmlns="http://www.w3.org/2000/svg">
<path fill-rule="evenodd" clip-rule="evenodd" d="M2.75454 12.4667H3.52643V9.23415C3.24753 9.43316 2.98576 9.61459 2.75454 9.77198V12.4667ZM1.98264 12.4566C1.79725 12.4259 1.67952 12.401 1.53329 12.3061C1.01233 11.9681 0.999296 10.58 1.80241 10.4004C1.80241 10.4004 1.86708 10.3597 1.98264 10.285V12.4566ZM4.29833 12.4667H5.07023V8.06763C4.81471 8.27396 4.55459 8.47568 4.29833 8.6687V12.4667ZM6.61403 12.4667V6.67057C6.56097 6.72492 6.06371 7.21649 5.84213 7.41434V12.4667H6.61403ZM8.92973 12.4667V4.2791C8.40675 4.82116 7.85946 5.38769 7.38593 5.87634V12.4667H8.92973ZM11.7302 12.4667C12.1432 12.4613 12.7595 12.0534 12.7595 11.2269C12.7595 10.4004 12.8333 3.78847 12.8333 2.96198C12.8333 2.1374 12.8333 1.72223 12.4656 1.30899C12.0459 0.837291 11.5518 1.38429 10.9948 2.13548C10.9948 2.13548 10.4392 2.71316 9.70163 3.47854V12.4667H11.7302Z" fill="white"/>
</svg>
