<svg width="14" height="14" viewBox="0 0 14 14" fill="none" xmlns="http://www.w3.org/2000/svg">
<path fill-rule="evenodd" clip-rule="evenodd" d="M11.2454 12.4667H10.4735V9.23416C10.7524 9.43316 11.0142 9.6146 11.2454 9.77199V12.4667ZM12.0173 12.4566C12.2027 12.4259 12.3204 12.401 12.4666 12.3061C12.9876 11.9681 13.0006 10.58 12.1975 10.4004C12.1975 10.4004 12.1329 10.3597 12.0173 10.285V12.4566ZM9.7016 12.4667H8.92971V8.06763C9.18523 8.27396 9.44535 8.47568 9.7016 8.66871V12.4667ZM7.38591 12.4667V6.67057C7.43897 6.72492 7.93623 7.21649 8.15781 7.41435V12.4667H7.38591ZM5.07021 12.4667V4.2791C5.59319 4.82116 6.14048 5.3877 6.61401 5.87635V12.4667H5.07021ZM2.26972 12.4667C1.85673 12.4613 1.24045 12.0534 1.24045 11.2269C1.24045 10.4004 1.16663 3.78848 1.16663 2.96198C1.16663 2.1374 1.16663 1.72224 1.53432 1.30899C1.95403 0.837295 2.44812 1.38429 3.00511 2.13549C3.00511 2.13549 3.56073 2.71316 4.29831 3.47855V12.4667H2.26972Z" fill="white"/>
</svg>
