<svg
  xmlns="http://www.w3.org/2000/svg"
  width="1274"
  height="1202"
  viewBox="0 0 12740 12020"
>
  <g id="l1BBzSZdu9sgQkuKximRfsg" fill="rgb(255,255,255)" style="transform: none">
    <g style="transform: none">
      <path
        id="pU3VptW03"
        d="M 5715 11666 c -35 -16 -83 -66 -111 -116 -44 -78 -45 -108 -42 -845 3 -700 3 -700 26 -756 41 -102 129 -162 212 -144 41 9 105 67 133 119 46 88 46 94 47 828 0 697 0 697 -24 763 -28 76 -83 132 -150 152 -50 16 -54 15 -91 -1 z "
      ></path>
      <path
        id="pw9du5JzJ"
        d="M 6636 11655 c -97 -34 -152 -190 -148 -420 1 -55 6 -354 10 -665 5 -356 12 -579 19 -603 18 -62 87 -144 133 -158 82 -25 165 22 216 124 54 105 54 107 54 807 0 564 -2 657 -16 712 -30 115 -82 188 -150 207 -50 14 -70 13 -118 -4 z "
      ></path>
      <path
        id="pUWNayZUw"
        d="M 4600 11319 c -36 -11 -92 -26 -124 -35 -53 -14 -185 -66 -391 -152 -38 -16 -149 -69 -245 -118 -175 -89 -175 -89 -40 -96 257 -12 686 -66 880 -110 13 -3 15 32 15 262 0 228 -2 265 -15 266 -8 1 -44 -7 -80 -17 z "
      ></path>
      <path
        id="pT0h2E9Ud"
        d="M 7425 11332 c -3 -3 -5 -316 -5 -696 0 -690 0 -690 83 -777 87 -92 144 -157 200 -231 51 -67 246 -361 295 -445 23 -40 60 -103 81 -140 35 -60 76 -144 168 -343 47 -102 90 -214 140 -370 47 -145 69 -217 114 -380 28 -101 58 -249 64 -315 4 -33 10 -94 16 -135 42 -340 42 -578 0 -945 -5 -44 -12 -89 -14 -100 -3 -11 -11 -47 -17 -80 -42 -209 -118 -471 -189 -653 -51 -128 -193 -390 -247 -455 -13 -16 -24 -33 -24 -37 0 -5 35 -33 78 -61 221 -149 354 -293 514 -559 117 -193 172 -338 228 -600 12 -57 9 -456 -5 -535 -20 -121 -83 -322 -130 -415 -42 -83 -110 -193 -159 -258 -142 -183 -404 -384 -615 -469 -446 -180 -937 -126 -1301 143 -98 72 -251 223 -303 299 -23 33 -55 78 -72 100 -16 23 -56 97 -88 165 -32 69 -66 141 -75 160 -13 26 -24 36 -46 38 -70 8 -81 -5 -162 -198 -44 -106 -174 -283 -302 -413 -143 -145 -192 -182 -342 -257 -201 -101 -376 -143 -600 -143 -220 0 -488 67 -647 162 -26 15 -74 43 -107 62 -63 37 -163 117 -235 190 -202 204 -333 435 -408 719 -40 153 -47 215 -47 400 1 319 50 528 185 790 44 85 78 134 218 315 114 148 316 288 696 481 217 111 326 188 474 335 124 124 200 228 273 374 70 138 87 186 122 328 37 154 40 179 40 347 -1 227 -25 371 -102 600 -59 175 -224 491 -301 575 -15 17 -47 57 -71 90 -41 55 -199 229 -273 300 -17 17 -74 72 -127 122 -53 51 -113 105 -133 120 -197 151 -209 160 -372 272 -55 37 -123 80 -150 95 -28 14 -88 49 -135 76 -153 90 -472 246 -615 302 -351 137 -461 173 -765 250 -159 40 -207 50 -320 69 -36 6 -90 15 -120 20 -51 8 -101 16 -270 40 -36 5 -99 12 -141 16 -85 9 -109 23 -109 62 0 27 12 38 187 186 80 67 470 329 633 424 69 41 150 88 180 106 99 59 171 93 375 178 28 11 115 43 195 71 80 28 143 56 140 61 -3 6 -50 28 -105 51 -55 23 -138 57 -185 76 -146 60 -442 151 -670 206 -262 63 -312 75 -365 83 -27 4 -81 13 -120 19 -149 25 -343 50 -485 61 -138 12 -616 22 -647 14 -12 -3 -35 -17 -52 -31 -63 -53 -66 -44 285 -742 173 -345 364 -719 424 -832 60 -113 285 -554 500 -980 215 -426 402 -795 416 -820 21 -37 25 -55 22 -103 -8 -108 -94 -187 -205 -187 -103 0 -133 31 -240 244 -83 165 -111 212 -123 199 -4 -4 -11 -37 -14 -73 -4 -36 -11 -99 -17 -140 -25 -203 -32 -334 -32 -670 0 -383 6 -473 53 -705 6 -33 15 -78 19 -100 77 -407 272 -951 446 -1245 177 -300 230 -384 302 -481 47 -63 101 -132 121 -156 20 -23 66 -76 102 -119 36 -43 92 -104 125 -137 60 -59 60 -59 67 -315 9 -362 35 -565 92 -731 14 -41 26 -81 26 -88 0 -22 108 -290 155 -383 62 -125 107 -241 101 -265 -3 -11 -38 -64 -78 -117 -66 -88 -172 -256 -211 -333 -22 -44 -81 -200 -105 -275 -65 -210 -74 -298 -78 -821 -5 -445 -5 -445 18 -479 13 -19 37 -42 53 -52 26 -15 37 -16 68 -6 20 6 45 21 55 32 21 23 62 137 62 171 0 39 77 250 130 355 29 57 78 143 110 190 56 81 210 242 295 306 210 159 456 274 587 274 53 0 62 -3 101 -38 108 -97 201 -155 449 -282 258 -132 444 -192 968 -315 78 -19 127 -27 270 -47 113 -15 747 -15 860 0 190 26 269 42 440 86 201 53 260 70 320 94 30 12 100 39 155 61 312 122 483 216 755 413 37 27 54 33 95 32 100 -1 350 -106 515 -217 62 -42 150 -114 218 -179 110 -105 245 -322 321 -512 29 -72 41 -110 86 -277 22 -79 53 -128 91 -147 34 -16 37 -15 72 3 20 11 47 35 59 54 24 35 24 35 19 510 -3 447 -7 522 -34 661 -45 228 -185 535 -317 693 -19 23 -53 64 -75 90 -61 74 -61 79 13 235 101 214 121 265 181 452 68 215 96 333 118 500 13 100 16 678 4 732 -13 55 -1 83 62 153 196 218 275 328 464 650 207 351 407 911 474 1330 3 22 10 65 15 95 29 173 32 248 32 630 0 379 -6 496 -32 650 -5 30 -14 84 -20 120 -28 172 -69 336 -144 580 -83 273 -340 817 -496 1050 -51 75 -171 238 -216 292 -16 20 -55 67 -85 104 -61 75 -506 524 -588 592 -120 100 -391 289 -529 370 -40 23 -103 60 -140 81 -38 22 -113 61 -168 86 -55 26 -143 67 -195 91 -52 24 -126 56 -165 70 -234 85 -400 136 -410 126 z "
      ></path>
      <path
        id="pFLwquKur"
        d="M 6046 5421 c -11 -12 -39 -69 -63 -128 -52 -127 -78 -188 -128 -303 -20 -47 -46 -107 -56 -134 -11 -27 -29 -67 -41 -89 -19 -39 -37 -81 -109 -254 -17 -40 -29 -83 -27 -95 2 -17 63 -68 213 -180 199 -150 212 -158 255 -158 49 0 26 -14 313 197 127 93 167 133 167 166 0 11 -21 66 -46 121 -25 56 -64 142 -86 191 -91 207 -109 247 -173 385 -129 281 -136 295 -171 298 -20 2 -36 -4 -48 -17 z "
      ></path>
      <path
        id="p2EH9K45j"
        d="M 10835 4157 c -120 -52 -178 -108 -232 -222 -36 -75 -38 -86 -38 -175 0 -89 2 -100 38 -175 46 -96 92 -147 171 -187 111 -56 215 -72 296 -43 49 17 69 18 90 5 16 -10 16 -20 37 -1395 5 -269 12 -497 16 -507 5 -9 21 -22 37 -28 55 -23 78 -9 388 233 186 144 275 213 310 240 71 54 194 183 241 252 152 222 209 454 173 705 -22 159 -54 239 -112 277 -39 27 -70 29 -110 8 -60 -31 -69 -77 -39 -210 6 -27 13 -93 16 -145 8 -156 -38 -293 -155 -466 -86 -128 -215 -245 -359 -326 -29 -17 -56 -34 -59 -39 -9 -15 -50 -10 -67 9 -15 16 -17 87 -21 693 -3 371 -9 791 -13 934 -8 260 -8 260 -48 343 -46 99 -93 145 -204 200 -72 36 -79 37 -190 39 -100 1 -123 -1 -166 -20 z "
      ></path>
      <path
        id="pvxqQJVfa"
        d="M5201.537235215252 3640.0362673041263 C 5201.537235215252 3914.0365573481154 4979.416113020656 4136.1576795427104 4705.415822976667 4136.1576795427104 4431.415532932679 4136.1576795427104 4209.294410738083 3914.0365573481154 4209.294410738083 3640.0362673041263 4209.294410738083 3366.0359772601373 4431.415532932679 3143.9148550655423 4705.415822976667 3143.9148550655423 4979.416113020656 3143.9148550655423 5201.537235215252 3366.0359772601373 5201.537235215252 3640.0362673041263 Z M4580.0 4125.0 "
      ></path>
      <path
        id="p12lkoUBnd"
        d="M7988.270076660006 3641.5964649635316 C 7988.270076660006 3916.179081296005 7765.676885736357 4138.772272219654 7491.094269403884 4138.772272219654 7216.511653071411 4138.772272219654 6993.918462147762 3916.179081296005 6993.918462147762 3641.5964649635316 6993.918462147762 3367.0138486310584 7216.511653071411 3144.420657707409 7491.094269403884 3144.420657707409 7765.676885736357 3144.420657707409 7988.270076660006 3367.0138486310584 7988.270076660006 3641.5964649635316 Z M7358.0 4125.0 "
      ></path>
    </g>
  </g>
</svg>
