<svg viewBox="0 0 16 16" xmlns="http://www.w3.org/2000/svg" style="max-height: 500px" width="16" height="16">
    
    <g transform="scale(0.03125)">
        <path d="M0 224c0 17.7 14.3 32 32 32s32-14.3 32-32c0-53 43-96 96-96l160 0 0 32c0 12.9 7.8 24.6 19.8 29.6s25.7 2.2 34.9-6.9l64-64c12.5-12.5 12.5-32.8 0-45.3l-64-64c-9.2-9.2-22.9-11.9-34.9-6.9S320 19.1 320 32l0 32L160 64C71.6 64 0 135.6 0 224zm512 64c0-17.7-14.3-32-32-32s-32 14.3-32 32c0 53-43 96-96 96l-160 0 0-32c0-12.9-7.8-24.6-19.8-29.6s-25.7-2.2-34.9 6.9l-64 64c-12.5 12.5-12.5 32.8 0 45.3l64 64c9.2 9.2 22.9 11.9 34.9 6.9s19.8-16.6 19.8-29.6l0-32 160 0c88.4 0 160-71.6 160-160z" fill="#2D2D2D"/>
    </g>
    <path d="M9 5.5a.5.5 0 0 0-.854-.354l-1.75 1.75a.5.5 0 1 0 .708.708L8 6.707V10.5a.5.5 0 0 0 1 0v-5Z" fill="#2D2D2D"/>
</svg>